<svg preserveAspectRatio="xMidYMid meet" data-bbox="10 10 180 180" viewBox="10 10 180 180" height="200" width="200" xmlns="http://www.w3.org/2000/svg" data-type="color" role="img" aria-label="Ultrasound-guided
Injections"><defs><style>#comp-kgcufqlp svg [data-color="1"] {fill: #1A366D;}</style></defs>
    <g>
        <path d="M100 10c-49.626 0-90 40.374-90 90s40.374 90 90 90 90-40.374 90-90-40.374-90-90-90zm0 175.14c-46.946 0-85.14-38.193-85.14-85.14S53.054 14.86 100 14.86s85.14 38.193 85.14 85.14-38.194 85.14-85.14 85.14z" fill="#1A366D" data-color="1"></path>
        <path d="M111.875 67.037h-9.056v-44h-4.888v44H86.875v81.872h-8v6.256h14.056v10.744H78.875v6.256h41v-6.256h-12.056v-10.744h12.056v-6.256h-8V67.037zm-20 5h15v8.134h-7v4.732h7v2.268h-7v4.732h7v2.268h-7v4.732h7v3.268h-7v4.732h7v2.268h-7v4.732h7v3.268h-7v4.732h7v2.268h-7v4.732h7v3.268h-7v4.732h7v2.268h-7v4.732h7v5.006h-15V72.037zm11.057 93.872H97.82v-10.744h5.112v10.744z" fill="#1A366D" data-color="1"></path>
    </g>
</svg>