<svg preserveAspectRatio="xMidYMid meet" data-bbox="20 36.502 160 126.998" viewBox="20 36.502 160 126.998" height="200" width="200" xmlns="http://www.w3.org/2000/svg" data-type="color" role="img" aria-label="PHYSICAL medicine &amp; REHABILTATION"><defs><style>#comp-kgcufql4 svg [data-color="1"] {fill: #1A366D;}</style></defs>
    <g>
        <path d="M42.087 50.25c0-7.467 6.087-13.52 13.597-13.52 7.508 0 13.598 6.053 13.598 13.52s-6.09 13.52-13.598 13.52c-7.51.001-13.597-6.053-13.597-13.52z" fill="#1A366D" data-color="1"></path>
        <path d="M20.069 58.739s.304-.369.473-.403c.096-.019.267.039.398.09 1.024-.669 3.229.158 3.882.581.576.375 1.471.97 1.89 1.25a.869.869 0 0 1 .416.029c.138.044.733.09 1.194.683.057.072.127.15.209.232.201-.011.428.273.473.317.03.03.098.123.156.209.151-.089.37.134.473.192.085.049.237.241.341.382.072.048.141.091.205.13.255.006.607.18.686.223.063.034.187.177.279.289l.207.102a.862.862 0 0 1 .596.068c.287.143.418.295.476.419l.197.098c.154-.06.308-.093.428-.106.303-.03.684.197.91.356a2.36 2.36 0 0 1 .788-.082c.383.03.708.263.892.429.2.046.393.106.557.16.355-.092.751-.062.94-.041.22.024.426.166.572.292.857.065 1.776.251 2.455.437 1.33.366.689.867.138.959-.133.022-.246.06-.339.106 1.333.409 4.04 1.528 5.261 1.965 1.56.559 7.058 2.174 9.056 2.422 1.998.249 14.801 2.298 16.611 2.546 1.811.249 4.059.746 5.058.746 1 0 3.372.185 3.372.185l.054.19a9.899 9.899 0 0 0 1.946-.5c1.499-.559 3.56-.435 3.56-.435s1.437-.187 3.311-.062c1.362.09 2.825.805 3.52 1.187 1.715-.277 3.713-.352 4.816-.373.491-1.302 1.172-2.141 1.172-2.141s1.654.394 4.035.527c2.381.131 13.362 4.209 16.073 5.459 2.713 1.249 8.864 4.736 9.327 4.801.464.067 4.234-.526 5.028-.788.417-.14.8-.058 1.067.049.978-1.026 2.644.349 3.287-.482.577-.745 3.3-1.489 4.401-1.765.891-1.351 2.191-1.91 2.976-2.135.504-2.058 1.703-4.415 2.933-6.639 2.032-3.682 9.874-8.303 10.962-8.592.805-.213 2.278-1.132 2.996-1.6-.113-.518-.292-1.131-.5-1.518-.361-.675-1.989-.989-2.983-.989s-1.762-.225-2.305-.853c-.542-.629-.136-2.067-.046-2.247s-.181-.495-.406-.855c-.14-.221-.021-.597.091-.85-.23-.221-.425-.685-.453-.767-.045-.134 0-.54.136-.809.135-.269 0-.449-.227-.539-.225-.089-.633-.089-1.084-.763-.453-.673.226-1.169.451-1.484.227-.313.995-1.482 1.4-1.977.407-.493.407-.673.181-1.078-.226-.405-.134-1.258-.045-1.528.091-.27.407-.808.722-2.067.317-1.258 1.492-2.919 1.492-2.919s.995-1.978 4.655-2.743c3.661-.762 11.615.36 12.562 5.393 0 0 1.581 4.178.588 6.606-.994 2.426-2.531 4.493-2.576 4.986-.034.373-.532 1.465-.54 2.422a3.48 3.48 0 0 1 1.787.781c1.034.856 3.56 2.225 3.847 5.193.138 1.43.157 3.083.169 4.548.274 1.097.731 2.799 1.036 3.216.459.628.919 2.739.976 3.482.058.741 0 3.425.114 3.767.048.14.037.317.008.478.091.187.167.377.167.492 0 .285-.116 1.028-.576 1.598-.361.449-.616 1.145-1.21 1.422.051.986.155 3.198.105 3.798 0 0 .391 1.75 0 2.722l-1.304 3.243c-.26.648-3.065 6.615-4.694 8.233-1.431 1.422-4.363 4.439-5.238 5.772.198.398.58 1.346.283 2.334-.391 1.296-1.049 2.308-1.115 2.504-.065.193-.272 1.125-1.118 1.707l-.064.043c-.084.201-.348.814-.531 1.072.021.202.096.974.004 1.308-.034.123-.076.25-.117.366.026.218.093.796.083 1.05-.012.316.088 1.135-.495 1.439-.224.118-.94.199-1.071-.514-.129-.715-.2-1.405-.235-1.545-.035-.141.047-.772.035-.995-.007-.153-.05-.552-.078-.835-.156.048-.36.06-.572.046-.057.143-.2.466-.365.681-.003.41-.046 1.86-.406 2.692.084.311.281 1.121.218 1.533-.078.517-.121 1.378-.992 1.536-.346.062-.771.016-.882-.393-.089-.332-.159-.845-.207-1.121a4.842 4.842 0 0 1-.079.647c.094.227.31.766.334 1.071.031.391.063 1.409-.346 1.816-.401.399-1.045.616-1.292.065l-.061.029s-.245-.69-.249-1.165c-.088-.198-.249-.558-.27-.635-.031-.108-.197-.781-.174-1.22-.077-.026-.221-.093-.267-.251-.054-.189-.003-.895.271-1.417-.007-.29-.014-.531-.018-.636a8.013 8.013 0 0 1 .026-1.09l-.121.308s-.215 2.005-.506 2.468c.031.306.101 1.125-.013 1.54-.142.516-.457 1.315-1.086 1.517-.43.14-.63-.013-.712-.238a.152.152 0 0 1-.091-.09c-.028-.083-.019-.828.017-1.277-.064-.127-.17-.365-.159-.508.015-.203.063-.658.078-.956.016-.297.064-1.956.031-2.254-.031-.297-.095-.72.126-1.095.22-.376.426-.689.426-.689s1.243-2.412 1.385-2.741c.131-.303.208-.658.392-.932.089-.19.217-.375.25-.409.07-.07.196-.277.418-.691.221-.414.667-.815.888-1.146.222-.331 1.903-2.569 2.209-2.915.248-.279.723-.876.895-1.094.161-.38.334-.698.458-.908.352-.939.902-2.385 1.238-3.136.521-1.167 1.956-4.539 1.956-4.539s-.034-.741.363-1.86c-.8.775-1.697 1.678-2.033 2.238-.492.812-3.734 3.382-6.114 4.576-.431.668-1.611 2.27-3.528 3.203-.482.906-1.754 2.803-4.233 3.503-2.274.642-5.204.8-7.349.14-.678.215-1.394.543-1.893.905-.726.526-12.766 6.512-14.949 7.037-2.182.527-20.042 7.498-21.564 8.287-1.52.79-1.852.725-1.852.725-.492-.355-1.322-1.855-2.251-3.712-.819.184-2.463.507-3.695.448-.419.097-1.019.231-1.624.352.573.628 2.601 3.112 2.601 6.843 0 4.249.231 5.959-2.632 10.17-.639 1.747-1.964 5.348-2.295 6.094-.351.791-.726 3.446-.926 4.822.106.076.21.173.245.278.047.138.477 1.319.598 2.428.142.116.319.332.363.718.076.636.751 4.182-1.152 7.151.001.157-.024.33-.089.538-.156.499-.806 1.096-1.638 1.427l-.165.371s-.469.361-1.207.083l-.045-.16a56.39 56.39 0 0 1-3.323.207c-.047.1-.129.26-.205.358-.117.149-.289.256-.674.256-.384 0-.663-.212-.673-.318a7.407 7.407 0 0 1-.013-.267c-.087-.002-.164-.003-.234-.006-1.082-.04-3.564.121-5.408.518-1.217.263-2.749.422-4.192.419-.038.076-.184.373-.217.426-.036.058-.351.134-.535.069-.183-.064-.356-.188-.356-.277 0-.049-.006-.164-.011-.256-.34-.023-.668-.057-.977-.102a65.996 65.996 0 0 1-1.505-.236c-.035.067-.086.162-.097.192-.019.047-.315.106-.458.059-.142-.048-.362-.148-.376-.272-.002-.043-.006-.101-.006-.159-.956-.201-1.903-.472-2.772-.878l-.187.202s-.196.107-.477-.079a.551.551 0 0 1-.208-.287l.018-.289a29.357 29.357 0 0 1-1.719-1.087l-.202.223s-.21.05-.383-.077c-.17-.13-.23-.301-.23-.301l.069-.368c-.881-.638-1.584-1.226-1.723-1.505-.279-.558-.04-1.474 0-1.594.022-.069.188-.098.326-.11.256-1.576 1.501-2.202 1.757-2.202.281 0 3.045-.279 3.485-.397.331-.091 1.518-.158 2.089-.186 1.102-.575 3.595-.84 4.121-.97.152-.038.37-.084.619-.137a1.8 1.8 0 0 1 .502-.262c.093-.022.236.032.343.083.174-.038.344-.076.506-.116.17-.184.339-.317.434-.367.107-.052.213.072.275.162.069-.029.126-.056.167-.081.046-.031.13-.082.238-.149a3.89 3.89 0 0 1 .564-.608c.108-.089.243-.019.342.06l.397-.238c.212-.282.502-.529.662-.62a.451.451 0 0 1 .406-.024 8.64 8.64 0 0 0 .397-.253c.133-.107.712-.089 1.082-.066.35-.281.93-.768 1.2-1.09.401-.478.481-1.275.601-1.913.121-.637.721-3.066 1.002-3.943.229-.716.591-3.34.738-4.499-.031-1.419-.189-9.555.329-11.537.041-.164.093-.35.153-.552.002-.941-.038-1.808-.153-2.264-.243-.967-.405-3.301-.405-3.301l.364-.182c-.2-.98-.14-2.262.056-3.164.302-1.384 2.822-3.823 3.542-4.495 1.914-2.512 5.887-4.923 7.264-5.716-.17-1.407-.155-2.433-.155-2.433s.861.198 2.183-.592c1.125-.67 7.067-3.191 8.832-3.935-2.079-1.135-4.682-2.4-6.516-3.036-2.844-.987-8.599-2.828-8.599-2.828.114-1.432.501-3.212 1.024-5.108-.513-.3-.952-.567-1.072-.661-.235-.189-2.175-1.152-3.114-1.615-1.455-.261-2.966-.858-3.64-1.144-1.093.017-2.749-.129-3.487-.038-.63.079-1.811.034-2.594-.011-.221.337-.404.571-.404.571s-1.811.31-2.435.061c-.625-.248-2.748.063-4.246.186-5.568.462-10.93-2.793-11.553-3.289-.626-.497-2.562-1.305-3.186-1.553-.625-.249-2.934-.869-4.309-1.615-1.376-.745-7.995-2.856-8.806-2.981-.073-.01-.146-.021-.225-.03.153.136.369.341.412.468.067.201-.168.269-.438.269-.23 0-1.125.22-1.718.639-.072.119-.272.321-.809.634-.978.57-1.484 1.039-2.326 1.206-.724.146-2.273.339-2.906.261a.479.479 0 0 1-.093.209l-.372.167c-.708-.167-1.449-2.277-2.121-3.853-.675-1.576-1.854-3.586-4.045-5.73-2.192-2.145-5.326-5.595-6.842-8.478-1.519-2.877-1.048-4.249-1.048-4.249z" fill="#1A366D" data-color="1"></path>
    </g>
</svg>